<?xml version="1.0" encoding="UTF-8"?>
<svg version="1.1" xmlns="http://www.w3.org/2000/svg" width="3464" height="3464">
<path d="M0 0 C1.621409 0.14955139 1.621409 0.14955139 3.27557373 0.30212402 C40.63569693 3.77558479 77.59500935 9.12799304 114.56817627 15.41662598 C117.70999469 15.95070214 120.85266665 16.47940251 123.99560547 17.00683594 C221.28798556 33.43746068 317.42171609 62.20013335 437.88122559 111.08972168 C439.99162497 111.99640188 442.1036031 112.8993218 444.21582031 113.80175781 C465.15806996 122.76639923 485.66387329 132.52804435 506.08560181 142.61711121 C511.69440162 145.38013466 517.34077287 148.05691828 523 150.71484375 C529.63988674 153.84030822 536.15959778 157.09607413 542.5625 160.6875 C544.42005855 161.71577349 546.27815541 162.74307499 548.13671875 163.76953125 C549.08853027 164.29627441 550.0403418 164.82301758 551.02099609 165.36572266 C555.19017469 167.65292816 559.38853172 169.88409957 563.58544922 172.11987305 C576.18754778 178.84367344 588.57980745 185.86655799 600.86816406 193.14648438 C603.60680221 194.76729361 606.34921345 196.38148721 609.09358215 197.99256897 C637.7201272 214.8011721 665.83224252 232.58142459 693.03320312 251.625 C695.2625006 253.18351581 697.49841136 254.73231429 699.734375 256.28125 C710.4978445 263.75530127 721.10084835 271.42229262 731.61914062 279.23681641 C734.04719498 281.034951 736.48320168 282.82176718 738.921875 284.60546875 C751.9156151 294.11500552 764.55782808 303.96989907 777.02661133 314.15551758 C781.43075883 317.74754519 785.88599406 321.26491133 790.375 324.75 C795.29943325 328.58217432 799.97927123 332.59386323 804.57421875 336.8203125 C807.15127574 339.13592892 809.80582391 341.32205066 812.5 343.5 C817.02097529 347.16014078 821.36689392 350.9678184 825.66796875 354.8828125 C827.75823889 356.78051169 829.86986115 358.64733415 832 360.5 C835.81165518 363.8198287 839.56551705 367.20121138 843.3125 370.59375 C845.45966289 372.5162098 847.62427729 374.41195619 849.80078125 376.30078125 C854.02891015 379.99408007 858.11614259 383.82296601 862.1875 387.6875 C863.55530128 388.98379957 864.92381375 390.27934906 866.29296875 391.57421875 C867.41010254 392.63116943 867.41010254 392.63116943 868.54980469 393.70947266 C870.71873589 395.73706458 872.91296843 397.7336126 875.11296082 399.72731018 C884.84660619 408.58971783 894.0999684 417.94797368 903.39501953 427.26464844 C905.88921754 429.76458212 908.38793521 432.25994281 910.88797569 434.75403214 C912.84251009 436.70492839 914.79462658 438.65823018 916.74605179 440.61223602 C918.10665245 441.97381005 919.4692347 443.33340301 920.83187866 444.69293213 C925.20994654 449.08745989 929.45435611 453.53246924 933.47329712 458.25921631 C935.07746821 460.08833113 936.76320093 461.79701134 938.5 463.5 C941.48893201 466.44264324 944.24652298 469.52355707 946.984375 472.69921875 C949.44480715 475.50773529 951.96994278 478.2544368 954.5 481 C958.73782128 485.60775029 962.91699462 490.25443796 967 495 C967.42361816 495.49193848 967.84723633 495.98387695 968.28369141 496.49072266 C971.86535267 500.65233045 975.43557813 504.82362101 979 509 C979.68884277 509.80679199 979.68884277 509.80679199 980.39160156 510.62988281 C991.76011878 523.96107016 1002.90661762 537.468064 1013.66894531 551.29394531 C1015.49409217 553.63329348 1017.33151691 555.9628774 1019.16845703 558.29296875 C1029.70990076 571.67377158 1039.95317434 585.24417068 1050 599 C1050.56686523 599.77601563 1051.13373047 600.55203125 1051.71777344 601.3515625 C1053.37769103 603.62780046 1055.03350046 605.90695893 1056.6875 608.1875 C1057.16098877 608.83807373 1057.63447754 609.48864746 1058.12231445 610.15893555 C1088.47910347 652.16431925 1116.02067904 696.23528235 1141.49609375 741.34375 C1143.06177531 744.10910965 1144.64008014 746.86703738 1146.21875 749.625 C1155.97353054 766.75531179 1164.98369904 784.24074827 1173.89398193 801.82049561 C1174.96649103 803.93396766 1176.04242764 806.04565451 1177.11962891 808.15673828 C1187.33139302 828.18133534 1196.9337242 848.43121762 1206 869 C1206.3083075 869.69911499 1206.61661499 870.39822998 1206.93426514 871.11853027 C1227.49154244 917.80757635 1245.25996172 965.48554427 1261 1014 C1261.23654297 1014.72789734 1261.47308594 1015.45579468 1261.71679688 1016.20574951 C1292.71290724 1111.69128435 1312.79844617 1210.32629682 1331.1875 1462.6875 C1331.18732061 1463.78360218 1331.18732061 1463.78360218 1331.1871376 1464.90184784 C1331.16818453 1557.00722796 1322.8692676 1649.10545836 1200 2072 C1199.72087769 2072.61989807 1199.44175537 2073.23979614 1199.1541748 2073.878479 C1191.30191602 2091.28712131 1182.89349252 2108.40985206 1174.375 2125.5 C1173.89957764 2126.45620239 1173.42415527 2127.41240479 1172.93432617 2128.39758301 C1166.34259609 2141.63742656 1159.45959235 2154.68771936 1152.30700684 2167.63299561 C1151.1630466 2169.70472073 1150.02438407 2171.77917017 1148.88964844 2173.85595703 C1139.98131619 2190.1463688 1130.6776181 2206.15561048 1121 2222 C1120.35417969 2223.0607373 1119.70835937 2224.12147461 1119.04296875 2225.21435547 C1104.62320327 2248.88111553 1089.76646883 2272.20651312 1074 2295 C1072.66534065 2296.93878561 1071.33070564 2298.87758797 1069.99609375 2300.81640625 C1061.55372717 2313.04773052 1052.89605607 2325.09511167 1044 2337 C1043.16002286 2338.128807 1042.32016693 2339.25770422 1041.48046875 2340.38671875 C1036.88374956 2346.54519542 1032.21732809 2352.64895065 1027.51953125 2358.73046875 C1025.88209365 2360.85102279 1024.25669741 2362.97919365 1022.63671875 2365.11328125 C1017.33292369 2372.08373531 1011.84782598 2378.87640449 1006.25415039 2385.61645508 C1002.48618517 2390.1652022 998.80589371 2394.76918632 995.1875 2399.4375 C991.37404546 2404.34750364 987.38008029 2409.00852779 983.16796875 2413.5859375 C980.91447008 2416.09523872 978.79838854 2418.68241626 976.6875 2421.3125 C972.27861892 2426.76376101 967.5647602 2431.87713498 962.78515625 2437 C960.02028676 2439.96546349 957.34278992 2442.99870393 954.6875 2446.0625 C948.38688002 2453.29654516 941.87681373 2460.34688579 935.35327148 2467.37963867 C933.24778001 2469.65037038 931.14850376 2471.92653194 929.05493164 2474.20825195 C919.5851582 2484.48639527 909.75899422 2494.39446595 899.86621094 2504.26416016 C897.10494716 2507.02001355 894.3491364 2509.78124028 891.59375 2512.54296875 C889.81542508 2514.32063359 888.03679037 2516.09798859 886.2578125 2517.875 C885.04038864 2519.09546021 885.04038864 2519.09546021 883.79837036 2520.34057617 C879.58172355 2524.5400739 875.29728548 2528.58808945 870.7663269 2532.44775391 C868.92980835 2534.06168434 867.21136903 2535.75461034 865.5 2537.5 C863.24202057 2539.79326036 860.94003496 2541.96428028 858.5 2544.0625 C854.39489448 2547.59834284 850.45004759 2551.29335238 846.5 2555 C842.02064765 2559.19976898 837.53144588 2563.36695171 832.875 2567.37109375 C830.61248819 2569.33665089 828.40309317 2571.35673309 826.1875 2573.375 C821.87441296 2577.26729806 817.43268288 2580.96211569 812.91796875 2584.6171875 C809.7458216 2587.20756202 806.61969439 2589.84697367 803.5 2592.5 C797.72369695 2597.40479066 791.87966764 2602.21940749 786 2607 C784.78486998 2607.99704705 783.5700451 2608.99446606 782.35546875 2609.9921875 C772.73164835 2617.88028957 762.93201131 2625.50470455 753 2633 C752.2054541 2633.60102539 751.4109082 2634.20205078 750.59228516 2634.82128906 C732.34129744 2648.61827367 713.78583342 2661.94231879 695 2675 C694.30165039 2675.48710449 693.60330078 2675.97420898 692.88378906 2676.47607422 C675.60791859 2688.52028162 657.84901711 2699.82859821 640 2711 C639.19546387 2711.50466797 638.39092773 2712.00933594 637.56201172 2712.52929688 C613.78506225 2727.42569895 589.62122812 2741.5485783 565 2755 C563.96552734 2755.56944336 562.93105469 2756.13888672 561.86523438 2756.72558594 C527.99262597 2775.34805023 493.27706613 2792.64318073 457.87921143 2808.17431641 C455.980297 2809.00865706 454.08341974 2809.84747953 452.18701172 2810.6875 C362.13728796 2850.54112693 267.92744972 2880.61446336 106 2914 C105.06019287 2914.16028687 104.12038574 2914.32057373 103.15209961 2914.48571777 C71.90400364 2919.79493925 40.52667014 2923.75794163 9 2927 C7.53551422 2927.15082031 7.53551422 2927.15082031 6.04144287 2927.3046875 C-75.66536772 2935.63945938 -158.07739567 2936.27379944 -287 2927 C-287.99960754 2926.89901001 -288.99921509 2926.79802002 -290.02911377 2926.69396973 C-388.54361709 2916.70095492 -486.47353909 2896.97558474 -580.77441406 2866.67431641 C-584.89179886 2865.3517849 -589.015291 2864.05020076 -593.14260864 2862.75904846 C-644.97289569 2846.53109161 -695.60105309 2826.45029571 -744.99694824 2803.91296387 C-746.9045211 2803.04351799 -748.81377429 2802.17788788 -750.72363281 2801.31347656 C-767.49806775 2793.70042844 -784.01469866 2785.59202705 -800.5 2777.375 C-801.45638367 2776.899487 -802.41276733 2776.423974 -803.39813232 2775.93405151 C-816.62733864 2769.347618 -829.66199168 2762.46332662 -842.59973145 2755.32202148 C-845.89402576 2753.50758791 -849.20071919 2751.71677868 -852.5078125 2749.92578125 C-869.31723072 2740.76995506 -885.73490306 2731.08766048 -902 2721 C-903.05590332 2720.34612305 -904.11180664 2719.69224609 -905.19970703 2719.01855469 C-935.85342381 2700.01065699 -965.95767264 2680.38263789 -995.21875 2659.28222656 C-997.22598613 2657.83732468 -999.2380158 2656.3992198 -1001.25 2654.9609375 C-1010.99756079 2647.97673015 -1020.58724774 2640.81422281 -1030.07617188 2633.48291016 C-1031.84269351 2632.12125376 -1033.61493774 2630.76763852 -1035.390625 2629.41796875 C-1042.02136472 2624.3632546 -1048.52228601 2619.1742265 -1054.9753418 2613.89550781 C-1059.39537143 2610.28458458 -1063.86623524 2606.74918275 -1068.375 2603.25 C-1073.29950348 2599.41792332 -1077.97928014 2595.40612857 -1082.57421875 2591.1796875 C-1085.15127574 2588.86407108 -1087.80582391 2586.67794934 -1090.5 2584.5 C-1095.02097529 2580.83985922 -1099.36689392 2577.0321816 -1103.66796875 2573.1171875 C-1105.75823889 2571.21948831 -1107.86986115 2569.35266585 -1110 2567.5 C-1113.81165518 2564.1801713 -1117.56551705 2560.79878862 -1121.3125 2557.40625 C-1123.47457664 2555.47043719 -1125.65343876 2553.55976006 -1127.84375 2551.65625 C-1131.81222264 2548.18941014 -1135.66889066 2544.61739043 -1139.5 2541 C-1140.73950422 2539.83324929 -1141.9790927 2538.66658807 -1143.21875 2537.5 C-1143.93619385 2536.82267822 -1144.6536377 2536.14535645 -1145.39282227 2535.44750977 C-1147.36792139 2533.59336904 -1149.35046316 2531.74887916 -1151.33959961 2529.90991211 C-1162.05992889 2519.97080013 -1172.44222516 2509.71178247 -1182.7668457 2499.36352539 C-1184.6449505 2497.48181232 -1186.52433425 2495.6015196 -1188.40649414 2493.72387695 C-1191.17083212 2490.96573972 -1193.93166043 2488.20413757 -1196.69140625 2485.44140625 C-1197.52378311 2484.61105362 -1198.35615997 2483.78070099 -1199.21376038 2482.92518616 C-1203.48238269 2478.63950363 -1207.59531504 2474.28002435 -1211.54093933 2469.69487 C-1213.19556546 2467.7728278 -1214.90528859 2465.91225912 -1216.6484375 2464.0703125 C-1217.256875 2463.42513672 -1217.8653125 2462.77996094 -1218.4921875 2462.11523438 C-1219.42417969 2461.13006836 -1219.42417969 2461.13006836 -1220.375 2460.125 C-1227.80553337 2452.23371506 -1235.08166496 2444.22983683 -1242.1953125 2436.05078125 C-1244.22958141 2433.73911203 -1246.3022231 2431.4646857 -1248.375 2429.1875 C-1252.2704657 2424.87090287 -1255.96858218 2420.4259887 -1259.625 2415.90625 C-1262.16664872 2412.79607459 -1264.76589917 2409.74094752 -1267.375 2406.6875 C-1271.67821389 2401.63952799 -1275.8021658 2396.47420666 -1279.87011719 2391.2355957 C-1283.02339444 2387.19300449 -1286.2859494 2383.26502018 -1289.625 2379.375 C-1293.88710726 2374.39866939 -1297.88139318 2369.27810766 -1301.7734375 2364.00390625 C-1304.03792948 2360.94882848 -1306.35572326 2357.94146646 -1308.6875 2354.9375 C-1315.28048815 2346.40746383 -1321.6405494 2337.7047298 -1328 2329 C-1328.54027832 2328.26120605 -1329.08055664 2327.52241211 -1329.63720703 2326.76123047 C-1349.50383973 2299.55244833 -1368.16723042 2271.58006477 -1386 2243 C-1386.51481934 2242.17757812 -1387.02963867 2241.35515625 -1387.56005859 2240.5078125 C-1410.81622857 2203.33183961 -1432.08253173 2165.05733101 -1452 2126 C-1452.51267426 2124.99622314 -1452.51267426 2124.99622314 -1453.03570557 2123.97216797 C-1463.95867609 2102.57756307 -1474.32397662 2080.98767051 -1484 2059 C-1484.31195312 2058.29123718 -1484.62390625 2057.58247437 -1484.9453125 2056.85223389 C-1498.36221269 2026.31796033 -1510.69017319 1995.37711643 -1522 1964 C-1522.24214233 1963.32942566 -1522.48428467 1962.65885132 -1522.73376465 1961.96795654 C-1535.56520545 1926.40773375 -1547.00802037 1890.46085063 -1557 1854 C-1557.21636108 1853.21210083 -1557.43272217 1852.42420166 -1557.65563965 1851.61242676 C-1583.24672724 1758.24636885 -1599.63617749 1662.01722685 -1606.75 1552.0625 C-1606.83874893 1550.55050522 -1606.83874893 1550.55050522 -1606.92929077 1549.00796509 C-1608.53704578 1521.09555971 -1609.20726369 1493.20356581 -1609.1875 1465.25 C-1609.18732061 1464.11698204 -1609.18732061 1464.11698204 -1609.1871376 1462.96107483 C-1609.18162091 1435.26983479 -1608.63022933 1407.64918253 -1607 1380 C-1606.94672546 1379.09515869 -1606.89345093 1378.19031738 -1606.83856201 1377.25805664 C-1606.05591162 1364.1586834 -1605.09683087 1351.07666843 -1604 1338 C-1603.9318811 1337.184104 -1603.86376221 1336.36820801 -1603.7935791 1335.52758789 C-1595.259712 1234.13939953 -1576.20063221 1133.19696873 -1546 1036 C-1545.5678418 1034.60581848 -1545.5678418 1034.60581848 -1545.12695312 1033.18347168 C-1526.35068871 972.67796908 -1504.2057294 913.69608579 -1478 856 C-1477.50016602 854.89591797 -1477.00033203 853.79183594 -1476.48535156 852.65429688 C-1468.80669103 835.7583222 -1460.65585155 819.10793855 -1452.375 802.5 C-1451.89984955 801.54443207 -1451.4246991 800.58886414 -1450.93515015 799.6043396 C-1444.34210552 786.36171697 -1437.45832268 773.30825629 -1430.30377197 760.36053467 C-1429.16655498 758.30155489 -1428.03431612 756.24000537 -1426.90576172 754.17626953 C-1413.67583443 730.00710909 -1399.65007718 706.35946729 -1384.9296875 683.06982422 C-1383.51959197 680.82658773 -1382.11893192 678.57888458 -1380.7265625 676.32470703 C-1374.63048512 666.47206875 -1368.2670879 656.82847933 -1361.75 647.25 C-1360.73051875 645.7479868 -1359.71106924 644.24595204 -1358.69165039 642.74389648 C-1346.79925229 625.23946737 -1334.64756877 607.96831715 -1322 591 C-1321.56316895 590.41250977 -1321.12633789 589.82501953 -1320.67626953 589.21972656 C-1315.69131184 582.51784023 -1310.62549378 575.87943897 -1305.51953125 569.26953125 C-1303.88209365 567.14897721 -1302.25669741 565.02080635 -1300.63671875 562.88671875 C-1294.69480169 555.0776199 -1288.51083004 547.49275964 -1282.25 539.9375 C-1279.75484993 536.92395117 -1277.29942325 533.88343611 -1274.875 530.8125 C-1271.20051963 526.1859594 -1267.35445497 521.71688707 -1263.49389648 517.24584961 C-1260.41192584 513.67021947 -1257.39845074 510.05230978 -1254.4375 506.375 C-1250.82223724 501.91639385 -1247.00056879 497.68416033 -1243.09008789 493.48657227 C-1240.0445126 490.19790537 -1237.17798214 486.81378606 -1234.375 483.3125 C-1230.86929374 478.95540793 -1227.12838576 475.02022467 -1223.125 471.12109375 C-1220.49632932 468.49725519 -1218.09636564 465.7160392 -1215.6796875 462.8984375 C-1213.50374931 460.43912131 -1211.17460946 458.16139984 -1208.83082581 455.86351013 C-1207.11635918 454.11843645 -1205.53106199 452.32207649 -1203.94897461 450.45727539 C-1199.31266699 445.12870816 -1194.31434921 440.16980537 -1189.31640625 435.18359375 C-1188.29167892 434.15819076 -1187.26709989 433.13263954 -1186.24266052 432.10694885 C-1184.1069957 429.96981937 -1181.96955792 427.83448391 -1179.83081055 425.70043945 C-1177.10991584 422.98524125 -1174.3935369 420.26557667 -1171.67848301 417.54453945 C-1169.56716186 415.42957925 -1167.45343325 413.31703793 -1165.33900261 411.20518684 C-1164.33728909 410.20413337 -1163.33629823 409.20235615 -1162.336092 408.19979668 C-1156.72598395 402.5793839 -1151.02663958 397.16936021 -1145 392 C-1143.61916467 390.73319342 -1142.24561009 389.45828633 -1140.88671875 388.16796875 C-1139.85889282 387.19525024 -1139.85889282 387.19525024 -1138.81030273 386.20288086 C-1138.10977783 385.53780518 -1137.40925293 384.87272949 -1136.6875 384.1875 C-1128.26463423 376.22691501 -1119.76956334 368.36695334 -1111.015625 360.76953125 C-1108.71392236 358.74885044 -1106.45235621 356.68687382 -1104.1875 354.625 C-1099.89877512 350.75405046 -1095.47891295 347.08628106 -1090.98828125 343.453125 C-1087.59249947 340.66547669 -1084.26321877 337.80796004 -1080.9375 334.9375 C-1076.27355159 330.91927131 -1071.56293731 326.98739667 -1066.73046875 323.171875 C-1064.61495235 321.48914665 -1062.51620175 319.79160237 -1060.42578125 318.078125 C-1050.7749071 310.16980325 -1040.95906509 302.51571186 -1031 295 C-1030.2054541 294.39897461 -1029.4109082 293.79794922 -1028.59228516 293.17871094 C-1016.84026486 284.29467432 -1004.99097042 275.55876251 -993 267 C-992.31405762 266.50967285 -991.62811523 266.0193457 -990.92138672 265.51416016 C-930.34143939 222.27574574 -866.37029466 183.33481252 -799.64453125 150.30859375 C-795.84037919 148.42432661 -792.05051521 146.51260335 -788.26171875 144.59765625 C-751.02529066 125.7986739 -712.88830849 109.08350602 -674 94 C-673.30183167 93.7283905 -672.60366333 93.45678101 -671.88433838 93.17694092 C-627.69592163 76.00034169 -582.75270103 60.46623784 -537 48 C-535.60086365 47.61805481 -535.60086365 47.61805481 -534.17346191 47.22839355 C-485.63711085 34.01221743 -436.73594465 22.82118444 -387.11602783 14.52215576 C-383.9917724 13.99862129 -380.86863978 13.46875372 -377.74560547 12.93798828 C-281.16625408 -3.4028704 -183.14444453 -8.45864472 0 0 Z " fill="#FEFEFE" transform="translate(1871,195)"/>
<path d="M0 0 C0.74952312 -0.001031 1.49904625 -0.002062 2.2712822 -0.00312424 C23.36963849 -0.03031842 44.37412774 0.34408463 65.4375 1.6875 C66.49584045 1.7548938 67.55418091 1.8222876 68.64459229 1.89172363 C71.58798195 2.08434733 74.53043924 2.28636591 77.47265625 2.49609375 C78.32661484 2.55657394 79.18057343 2.61705414 80.06040955 2.67936707 C83.60674722 2.9517822 86.93897116 3.3544963 90.375 4.25 C91.71316981 4.39019083 93.05522906 4.49584146 94.3984375 4.57421875 C126.97259986 6.75466496 159.39116186 11.57195974 191.37208557 18.04910278 C195.40320297 18.86505557 199.43959322 19.63611849 203.48587036 20.37310791 C211.68669618 21.87006342 219.78180604 23.68825077 227.875 25.6875 C229.13530029 25.99534424 230.39560059 26.30318848 231.6940918 26.62036133 C235.25566067 27.49186522 238.81568946 28.36932397 242.375 29.25 C243.23818848 29.46333984 244.10137695 29.67667969 244.99072266 29.89648438 C248.29046111 30.71371267 251.58774848 31.53904296 254.8828125 32.375 C257.20610857 32.9571234 259.53438056 33.51974402 261.8671875 34.0625 C343.07062458 53.29037516 425.2132582 87.82752277 497.11865234 129.94042969 C499.82405152 131.51062674 502.56028166 133.01881941 505.30249023 134.5234375 C535.13441767 150.96750992 563.85580671 170.19778071 591.375 190.25 C592.1390918 190.8059082 592.90318359 191.36181641 593.69042969 191.93457031 C607.97377748 202.34773805 621.97862601 213.03915627 635.6640625 224.2265625 C638.56586413 226.59731547 641.49339179 228.93188157 644.4375 231.25 C653.99769902 238.87558876 663.12413525 247.06470245 672.18359375 255.2734375 C674.23038796 257.11956561 676.29631557 258.93993284 678.375 260.75 C693.60051196 274.04594213 708.19352989 287.97520628 722.5 302.25 C723.30825729 303.054375 723.30825729 303.054375 724.13284302 303.875 C729.53504972 309.25669969 734.86845688 314.65368546 739.82763672 320.453125 C742.4224495 323.46635031 745.15550574 326.34967085 747.875 329.25 C752.46753976 334.17530429 756.98327111 339.14416885 761.375 344.25 C762.34845223 345.37023166 763.32246773 346.48997396 764.296875 347.609375 C775.3021077 360.25963501 786.111848 372.98743236 796.375 386.25 C796.79104492 386.78592773 797.20708984 387.32185547 797.63574219 387.87402344 C800.56742781 391.65196883 803.47811437 395.44535923 806.375 399.25 C807.07278564 400.16604004 807.07278564 400.16604004 807.78466797 401.10058594 C815.5519861 411.32033161 823.05506611 421.7055889 830.375 432.25 C830.89707031 433.00152344 831.41914063 433.75304687 831.95703125 434.52734375 C855.50719215 468.50604305 876.93759955 503.76097348 896.375 540.25 C896.9309082 541.28801758 897.48681641 542.32603516 898.05957031 543.39550781 C924.70222401 593.32647112 948.12299545 646.6127369 964.359375 700.89453125 C965.11810699 703.40126503 965.89836924 705.89480954 966.703125 708.38671875 C970.95603871 721.5760264 974.7364372 734.87912395 978.375 748.25 C978.6328125 749.19327148 978.890625 750.13654297 979.15625 751.10839844 C985.69456745 775.15885 990.94241855 799.46717397 995.625 823.9375 C995.79167175 824.80380035 995.95834351 825.67010071 996.13006592 826.56265259 C998.52991647 839.08312706 1000.59254701 851.62719 1002.375 864.25 C1002.55545868 865.51845261 1002.55545868 865.51845261 1002.73956299 866.81253052 C1009.58339687 915.19192624 1012.73695739 963.2961397 1012.75 1012.125 C1012.75104485 1013.00070774 1012.75208969 1013.87641548 1012.7531662 1014.77865982 C1012.78724694 1045.77852524 1011.74308798 1076.64646987 1008.5625 1107.5 C1008.47851959 1108.33277466 1008.39453918 1109.16554932 1008.30801392 1110.02355957 C1005.31587054 1139.62726196 1001.44415697 1168.89160296 995.59692383 1198.07376099 C994.76203001 1202.2486435 993.97213849 1206.42694743 993.23828125 1210.62109375 C990.59981223 1225.53792841 987.07758188 1240.22283546 983.5 1254.9375 C983.25110016 1255.96854858 983.00220032 1256.99959717 982.74575806 1258.06188965 C979.3514021 1272.0767729 975.50189847 1285.88306617 971.18878174 1299.64242554 C970.2111949 1302.77487538 969.26009903 1305.91490222 968.31095886 1309.05606079 C956.71575384 1347.33076728 942.77129417 1384.77373066 926.375 1421.25 C925.84567871 1422.42884766 925.31635742 1423.60769531 924.77099609 1424.82226562 C921.37970882 1432.33361761 917.89815022 1439.79974227 914.375 1447.25 C913.85196289 1448.36310547 913.32892578 1449.47621094 912.79003906 1450.62304688 C905.96335365 1465.12924086 898.81275502 1479.37075942 890.98339844 1493.36132812 C889.25489616 1496.46570562 887.55189361 1499.58323446 885.8515625 1502.703125 C861.80145731 1546.67927734 833.67605765 1588.1987931 803.16113281 1627.92041016 C801.60829453 1629.94572219 800.06334009 1631.97656831 798.5234375 1634.01171875 C793.55700161 1640.55908234 788.37710425 1646.88014653 783.03515625 1653.12109375 C780.55720852 1656.02051583 778.14840982 1658.97181411 775.75 1661.9375 C772.17857231 1666.3287038 768.44383787 1670.53109938 764.62890625 1674.7109375 C762.26940487 1677.36895465 760.03775885 1680.10392294 757.8125 1682.875 C754.49891988 1686.97231385 751.02409862 1690.71527561 747.24609375 1694.3828125 C745.49759176 1696.12766417 743.90419298 1697.92514904 742.3125 1699.8125 C738.09717843 1704.72875264 733.44573733 1709.2067853 728.84545898 1713.7578125 C725.72980931 1716.85223051 722.68087292 1719.92937718 719.875 1723.3125 C716.03213488 1727.86664093 711.58618108 1731.79061832 707.21069336 1735.82080078 C703.02186651 1739.68621604 698.93917267 1743.62899273 694.9375 1747.6875 C691.26664339 1751.40145864 687.53306236 1754.9674677 683.5546875 1758.3515625 C681.23727065 1760.36995782 678.9927744 1762.45362983 676.74731445 1764.55126953 C671.33728958 1769.60459808 665.8205075 1774.41150481 660.04296875 1779.046875 C657.29110462 1781.31927818 654.67761857 1783.69694831 652.0625 1786.125 C646.92405744 1790.84799402 641.54241158 1795.1440497 636.02734375 1799.41015625 C632.98933433 1801.76025326 629.99798776 1804.16247028 627.01538086 1806.58227539 C617.70153453 1814.12466224 608.0673425 1821.20439754 598.375 1828.25 C597.18342285 1829.11987549 597.18342285 1829.11987549 595.96777344 1830.00732422 C587.4814565 1836.20243996 578.96807259 1842.31028363 570.17382812 1848.06396484 C567.98761307 1849.5054188 565.81414764 1850.96525928 563.640625 1852.42578125 C544.28332371 1865.4240139 524.61272404 1877.66604256 504.375 1889.25 C503.37194824 1889.82508301 502.36889648 1890.40016602 501.33544922 1890.99267578 C441.41476009 1925.23997399 378.6776387 1952.08328848 313.375 1974.25 C312.18712891 1974.65331543 310.99925781 1975.05663086 309.77539062 1975.47216797 C295.85177977 1980.1563457 281.8100195 1984.08475456 267.56640625 1987.671875 C263.31324171 1988.74428417 259.08963716 1989.87767542 254.87915039 1991.10571289 C225.27810814 1999.6986333 194.90783798 2004.83573322 164.54219055 2009.85549927 C160.08913608 2010.59647973 155.65749845 2011.38157317 151.23608398 2012.29370117 C146.66739795 2013.22289872 142.1046235 2013.88313017 137.4765625 2014.43359375 C136.24620018 2014.58378716 136.24620018 2014.58378716 134.99098206 2014.73701477 C132.32795543 2015.05943405 129.66414712 2015.37448096 127 2015.6875 C126.07893463 2015.7963855 125.15786926 2015.905271 124.20889282 2016.01745605 C111.34280987 2017.53054212 98.47035762 2018.89712608 85.5625 2020 C84.25297363 2020.11529053 82.94344727 2020.23058105 81.59423828 2020.34936523 C55.38068919 2022.53597278 29.0230862 2022.43828783 2.73901367 2022.43530273 C-0.95309354 2022.43522156 -4.64507641 2022.44217126 -8.3371582 2022.45581055 C-64.46774964 2022.65972344 -120.48104444 2018.24754673 -175.69287109 2007.79931641 C-179.14218962 2007.15310769 -182.59631117 2006.53603621 -186.05078125 2005.91796875 C-204.38745109 2002.61315363 -222.53288519 1998.72322326 -240.625 1994.25 C-241.28213989 1994.08759827 -241.93927979 1993.92519653 -242.61633301 1993.75787354 C-257.28112837 1990.12636779 -271.87489958 1986.36998408 -286.234375 1981.65234375 C-289.96762558 1980.43479876 -293.72933219 1979.38446007 -297.52001953 1978.36230469 C-340.46027175 1966.6782274 -382.46210463 1949.25523307 -422.625 1930.25 C-423.77403809 1929.70859375 -424.92307617 1929.1671875 -426.10693359 1928.609375 C-433.30628012 1925.21006339 -440.47286914 1921.74738345 -447.625 1918.25 C-448.55812012 1917.79705566 -449.49124023 1917.34411133 -450.45263672 1916.87744141 C-463.8098037 1910.38447141 -476.76463369 1903.33734935 -489.64355469 1895.94580078 C-492.67902989 1894.21926862 -495.73045018 1892.52501503 -498.7890625 1890.83984375 C-521.83363404 1878.13223386 -543.84096435 1863.99902155 -565.625 1849.25 C-566.38780273 1848.73453613 -567.15060547 1848.21907227 -567.93652344 1847.68798828 C-588.47968644 1833.77944293 -608.55489205 1819.15667704 -627.734375 1803.41796875 C-631.44179849 1800.38235406 -635.21408376 1797.43666133 -639 1794.5 C-643.93487286 1790.66008429 -648.62409162 1786.6398938 -653.2265625 1782.40234375 C-655.64593865 1780.23120978 -658.14234564 1778.20910159 -660.6875 1776.1875 C-667.3248649 1770.82292524 -673.43568698 1764.91638519 -679.6171875 1759.0390625 C-682.63257617 1756.17479307 -685.69185463 1753.37487563 -688.8125 1750.625 C-693.60552347 1746.36453469 -698.08830036 1741.8177029 -702.59448242 1737.2590332 C-705.51482291 1734.31636656 -708.4326625 1731.46364724 -711.625 1728.8125 C-716.19711365 1724.94378845 -720.14469389 1720.48392393 -724.19555664 1716.0859375 C-728.06107109 1711.89704646 -732.00390138 1707.81424464 -736.0625 1703.8125 C-739.82020535 1700.09853128 -743.43385457 1696.32103007 -746.859375 1692.296875 C-749.0193342 1689.79285151 -751.25987993 1687.37002302 -753.5 1684.9375 C-757.64745258 1680.39475315 -761.55732695 1675.70880038 -765.41796875 1670.921875 C-767.54123338 1668.3514095 -769.74311849 1665.89080637 -772 1663.4375 C-776.06300953 1658.97878867 -779.78308452 1654.31676595 -783.47485352 1649.55224609 C-786.37850173 1645.81128784 -789.36305721 1642.16615016 -792.4375 1638.5625 C-798.59153119 1631.23210582 -804.16699269 1623.4861445 -809.79736328 1615.75097656 C-811.60226929 1613.28110518 -813.42125196 1610.82235739 -815.24609375 1608.3671875 C-828.07319942 1591.10282361 -839.96936237 1573.3241351 -851.625 1555.25 C-852.15770508 1554.4259668 -852.69041016 1553.60193359 -853.23925781 1552.75292969 C-878.37153932 1513.78577167 -900.62482808 1472.52596402 -919.625 1430.25 C-919.9124408 1429.61088684 -920.19988159 1428.97177368 -920.49603271 1428.31329346 C-929.09251053 1409.172499 -937.23377748 1389.89322007 -944.625 1370.25 C-944.87316467 1369.59294067 -945.12132935 1368.93588135 -945.37701416 1368.25891113 C-952.37038353 1349.72502063 -958.78253376 1331.05428585 -964.625 1312.125 C-964.89254089 1311.25856873 -965.16008179 1310.39213745 -965.43572998 1309.49945068 C-970.23937686 1293.88657565 -974.72542071 1278.20206319 -978.6015625 1262.33203125 C-979.2903124 1259.54816593 -980.01690204 1256.77791955 -980.7734375 1254.01171875 C-987.12555631 1230.75622951 -991.59896339 1207.05651962 -995.6875 1183.3125 C-995.90188721 1182.07472809 -996.11627441 1180.83695618 -996.3371582 1179.56167603 C-1000.27190065 1156.70533327 -1003.21516463 1133.829442 -1005.38726807 1110.74343872 C-1005.63370381 1108.15871055 -1005.89171931 1105.57532658 -1006.15185547 1102.99194336 C-1007.30038328 1091.48423567 -1008.20515909 1079.98983859 -1008.75 1068.4375 C-1008.79169312 1067.56036346 -1008.83338623 1066.68322693 -1008.87634277 1065.7795105 C-1011.27458082 1013.26399455 -1010.950587 959.86763243 -1004.89904785 907.61962891 C-1004.59059554 904.95251254 -1004.28712953 902.28484552 -1003.98339844 899.6171875 C-1001.24416894 875.68927215 -998.3680886 851.87481075 -993.625 828.25 C-993.19746954 826.07300443 -992.77039253 823.89591976 -992.34375 821.71875 C-991.31805101 816.51815997 -990.26646844 811.32319992 -989.20703125 806.12939453 C-988.64683089 803.35800061 -988.10150767 800.58417932 -987.5625 797.80859375 C-985.70934164 788.2884293 -983.66326294 778.86638155 -981.20654297 769.48193359 C-980.556338 766.9864786 -979.92061923 764.48752979 -979.28515625 761.98828125 C-973.8263076 740.63791273 -967.56487524 719.56115175 -960.72265625 698.61474609 C-959.96878362 696.30383137 -959.2190023 693.99157918 -958.47265625 691.67822266 C-952.52299439 673.25133958 -945.9639756 655.1765485 -938.625 637.25 C-938.37020874 636.62611389 -938.11541748 636.00222778 -937.85290527 635.35943604 C-930.25426564 616.7621454 -922.22999946 598.40743709 -913.625 580.25 C-912.8194165 578.53828613 -912.8194165 578.53828613 -911.99755859 576.79199219 C-899.16001927 549.55857787 -885.10544059 523.07999515 -869.625 497.25 C-869.04508301 496.27981934 -868.46516602 495.30963867 -867.86767578 494.31005859 C-852.24647146 468.23449795 -835.53417693 442.8153995 -817.625 418.25 C-816.83077637 417.15824463 -816.83077637 417.15824463 -816.02050781 416.04443359 C-804.82491089 400.67811374 -793.13738155 385.7924767 -781.11035156 371.07177734 C-779.77445103 369.43330105 -778.44538316 367.78925952 -777.1171875 366.14453125 C-772.80084181 360.81301715 -768.35271848 355.64643392 -763.734375 350.57421875 C-761.87873343 348.52957665 -760.05743624 346.46215851 -758.25 344.375 C-754.79580696 340.40669451 -751.23369442 336.53987441 -747.67016602 332.67016602 C-745.137893 329.91561908 -742.63479797 327.14274925 -740.1875 324.3125 C-731.26462764 314.0469746 -721.82756708 304.28844757 -712.19628906 294.69091797 C-710.3588424 292.85889005 -708.5268835 291.02149395 -706.6953125 289.18359375 C-701.40132157 283.88661098 -696.11601366 278.64681882 -690.40966797 273.78955078 C-687.10203055 270.93620447 -683.97621362 267.88573771 -680.8125 264.875 C-675.435985 259.79264462 -669.9862441 254.96605846 -664.19921875 250.35546875 C-661.41469652 248.07799154 -658.77086197 245.68687992 -656.125 243.25 C-650.7951902 238.35619721 -645.25655227 233.78994201 -639.625 229.25 C-638.45351036 228.28757311 -637.28298981 227.32396579 -636.11328125 226.359375 C-619.45613337 212.65777006 -602.20516894 199.73947437 -584.625 187.25 C-583.86461426 186.70698242 -583.10422852 186.16396484 -582.32080078 185.60449219 C-553.33960001 164.93376675 -523.15440277 145.99271143 -492.08349609 128.62548828 C-490.48752299 127.73256748 -488.89394331 126.83535018 -487.30322266 125.93310547 C-422.10380778 88.98081106 -350.99347748 58.94633237 -278.5390625 39.5859375 C-274.64223121 38.53900556 -270.7850566 37.4050812 -266.9375 36.1875 C-248.1366894 30.32126242 -228.86422284 26.36741052 -209.625 22.25 C-208.38234375 21.98203613 -207.1396875 21.71407227 -205.859375 21.43798828 C-185.62447622 17.07899031 -165.28549111 13.59210304 -144.81060791 10.57287598 C-143.36245529 10.35894296 -141.91449429 10.14370846 -140.46673584 9.92712402 C-111.30831491 5.56511998 -82.03886676 3.15385566 -52.625 1.25 C-51.80126892 1.19485229 -50.97753784 1.13970459 -50.12884521 1.08288574 C-33.4377953 -0.00941178 -16.7194153 0.01052547 0 0 Z " fill="#000000" transform="translate(1730.625,194.75)"/>
</svg>
