<?xml version="1.0" standalone="no"?>
<!DOCTYPE svg PUBLIC "-//W3C//DTD SVG 20010904//EN"
 "http://www.w3.org/TR/2001/REC-SVG-20010904/DTD/svg10.dtd">
<svg version="1.0" xmlns="http://www.w3.org/2000/svg"
 width="300.000000pt" height="300.000000pt" viewBox="0 0 300.000000 300.000000"
 preserveAspectRatio="xMidYMid meet">
<metadata>
Created by potrace 1.10, written by Peter Selinger 2001-2011
</metadata>
<g transform="translate(0.000000,300.000000) scale(0.100000,-0.100000)"
fill="#000000" stroke="none">
<path d="M1321 1741 c-8 -5 -11 -70 -9 -232 l3 -224 30 0 30 0 3 228 c1 125
-1 227 -5 228 -5 0 -15 2 -24 4 -9 1 -22 0 -28 -4z"/>
<path d="M2341 1741 c-8 -5 -11 -70 -9 -232 l3 -224 93 -3 c129 -3 177 26 203
121 33 125 -99 240 -221 193 -13 -5 -14 4 -12 60 2 39 -1 71 -7 77 -14 14 -35
17 -50 8z m200 -230 c79 -79 -13 -206 -116 -159 -24 11 -25 15 -25 89 0 88 7
98 73 99 29 0 45 -7 68 -29z"/>
<path d="M440 1588 c-60 -31 -90 -77 -90 -140 0 -98 53 -158 145 -166 29 -2
61 0 71 6 12 7 23 6 35 -1 9 -5 24 -7 33 -4 15 6 16 25 14 159 l-3 153 -40 1
c-22 1 -58 5 -80 9 -31 5 -50 1 -85 -17z m128 -64 c19 -13 22 -24 22 -84 0
-67 -1 -70 -30 -85 -46 -24 -78 -19 -116 19 -48 48 -44 105 10 148 26 22 84
23 114 2z"/>
<path d="M1045 1601 c-11 -5 -37 -6 -57 -3 l-38 5 0 -212 0 -211 30 0 c30 0
30 0 30 59 l0 59 38 -14 c71 -24 148 9 184 79 26 53 21 130 -12 177 -38 53
-121 82 -175 61z m89 -72 c33 -15 59 -71 51 -109 -4 -16 -21 -41 -38 -56 -25
-21 -38 -25 -69 -21 -60 8 -68 20 -68 98 0 59 3 70 22 83 26 19 67 20 102 5z"/>
<path d="M1946 1592 c-60 -21 -92 -58 -82 -97 7 -26 19 -39 76 -84 33 -26 20
-38 -62 -61 -64 -17 -82 -36 -59 -64 13 -16 83 -6 137 20 78 37 86 109 17 159
-23 16 -42 35 -42 42 -1 13 51 33 84 33 27 0 35 17 24 48 -10 26 -27 27 -93 4z"/>
<path d="M1469 1588 c-3 -80 4 -236 13 -252 27 -54 110 -74 168 -41 32 19 40
18 40 -1 0 -11 8 -14 28 -12 l27 3 0 155 0 155 -27 3 c-16 2 -28 0 -28 -5 0
-4 -2 -49 -3 -100 -2 -81 -5 -94 -26 -117 -32 -34 -85 -44 -111 -21 -17 15
-20 34 -22 129 l-3 111 -27 3 c-18 2 -28 -1 -29 -10z"/>
</g>
</svg>
